<?xml version="1.0" standalone="no"?>
<!DOCTYPE svg PUBLIC "-//W3C//DTD SVG 20010904//EN"
 "http://www.w3.org/TR/2001/REC-SVG-20010904/DTD/svg10.dtd">
<svg version="1.0" xmlns="http://www.w3.org/2000/svg"
 width="612.000000pt" height="386.000000pt" viewBox="0 0 612.000000 386.000000"
 preserveAspectRatio="xMidYMid meet">

<g transform="translate(0.000000,386.000000) scale(0.100000,-0.100000)"
fill="#000000" stroke="none">
<path d="M0 1930 l0 -1930 3060 0 3060 0 0 1930 0 1930 -3060 0 -3060 0 0
-1930z m2879 539 c41 -11 77 -23 80 -28 4 -4 20 -11 36 -15 45 -11 296 -136
420 -210 l110 -66 -64 0 c-58 0 -70 4 -130 42 -36 22 -77 48 -91 56 l-25 14
25 -21 c14 -11 56 -41 93 -67 l68 -47 99 7 c60 3 113 13 135 23 33 16 38 16
90 -1 51 -16 56 -16 86 0 28 14 40 15 85 5 45 -10 57 -10 77 3 13 9 27 13 31
9 4 -5 107 -8 229 -8 248 -1 252 -2 422 -85 123 -60 199 -115 312 -224 104
-101 104 -101 92 -134 -6 -17 -16 -35 -22 -39 -7 -4 -8 0 -3 12 6 17 5 18 -11
3 -33 -28 -47 -33 -40 -14 6 15 3 15 -21 -3 -16 -11 -35 -27 -42 -36 -23 -28
-27 -15 -12 43 l15 57 -29 44 c-16 24 -40 49 -55 55 -14 6 -57 46 -94 89 -73
82 -138 131 -232 174 -81 37 -204 42 -388 14 -194 -28 -370 -41 -559 -40
l-161 0 -60 45 c-174 129 -415 278 -491 305 -60 21 -631 18 -739 -4 -81 -16
-404 -118 -405 -127 0 -3 35 -6 78 -8 80 -3 232 -25 271 -40 13 -5 -76 -6
-205 -4 -232 4 -479 -11 -674 -43 -139 -22 -189 -26 -228 -19 -34 7 -27 9 73
30 61 13 124 23 141 24 16 0 46 11 65 26 27 20 44 25 85 23 39 -2 58 3 82 19
23 17 44 22 91 22 49 0 69 5 101 26 32 21 48 25 92 22 42 -2 59 2 83 19 25 17
49 22 120 26 50 2 141 13 203 25 271 52 630 61 791 21z m-648 -220 c-5 -13
-10 -19 -10 -12 -1 15 10 45 15 40 3 -2 0 -15 -5 -28z m894 -1 c24 -19 27 -26
21 -65 l-6 -43 75 0 c66 0 81 -4 117 -27 26 -18 36 -29 26 -31 -32 -6 -232 16
-236 26 -2 6 -10 8 -18 5 -17 -6 -17 -5 0 45 16 44 10 52 -38 52 -24 0 -76 35
-76 51 0 5 24 9 54 9 40 0 60 -6 81 -22z m-870 -233 c4 -16 5 -28 3 -25 -11
10 -48 161 -47 193 0 19 8 -2 19 -53 10 -47 21 -98 25 -115z m540 150 c116 -8
226 -15 245 -15 l35 -1 -39 -20 c-46 -25 -73 -23 -376 21 -230 33 -190 38 135
15z m-868 -34 c34 -18 72 -44 85 -59 l23 -25 -35 20 c-138 83 -331 84 -469 2
l-36 -21 20 22 c61 68 150 101 265 97 74 -3 93 -7 147 -36z m468 4 l60 -14
-64 2 c-41 1 -66 6 -69 15 -5 15 -2 15 73 -3z m-607 -72 c-10 -2 -28 -2 -40 0
-13 2 -5 4 17 4 22 1 32 -1 23 -4z m2590 0 c-10 -2 -28 -2 -40 0 -13 2 -5 4
17 4 22 1 32 -1 23 -4z m-2675 -10 c-7 -2 -19 -2 -25 0 -7 3 -2 5 12 5 14 0
19 -2 13 -5z m144 1 c-3 -3 -12 -4 -19 -1 -8 3 -5 6 6 6 11 1 17 -2 13 -5z
m2446 -1 c-7 -2 -19 -2 -25 0 -7 3 -2 5 12 5 14 0 19 -2 13 -5z m144 1 c-3 -3
-12 -4 -19 -1 -8 3 -5 6 6 6 11 1 17 -2 13 -5z m-2537 -14 c18 -12 2 -12 -25
0 -13 6 -15 9 -5 9 8 0 22 -4 30 -9z m2590 0 c18 -12 2 -12 -25 0 -13 6 -15 9
-5 9 8 0 22 -4 30 -9z m-280 -10 c-8 -5 -19 -10 -25 -10 -5 0 -3 5 5 10 8 5
20 10 25 10 6 0 3 -5 -5 -10z m-2600 -4 c0 -2 -7 -7 -16 -10 -8 -3 -12 -2 -9
4 6 10 25 14 25 6z m2560 -10 c0 -2 -8 -10 -17 -17 -16 -13 -17 -12 -4 4 13
16 21 21 21 13z m-2284 -36 c61 -26 120 -84 151 -148 24 -48 28 -70 28 -137 0
-67 -5 -88 -27 -130 -29 -54 -85 -114 -133 -138 -27 -15 70 -16 1149 -17
l1180 0 -45 28 c-93 60 -141 145 -142 257 -1 123 60 222 168 276 216 106 464
-62 442 -301 -8 -96 -83 -209 -157 -240 -16 -7 -30 -16 -30 -21 0 -5 107 -9
238 -10 403 -1 350 -14 -88 -22 -544 -9 -2557 -9 -3105 0 -440 8 -481 20 -75
22 l225 1 -51 30 c-103 58 -158 156 -157 276 2 214 231 360 429 274z m-706 10
c0 -6 -40 -10 -100 -10 -112 0 -108 4 -85 -80 8 -30 12 -56 10 -58 -2 -2 -9
16 -15 39 -6 24 -15 58 -20 76 -8 30 -7 32 23 36 69 8 187 7 187 -3z m2733
-88 l-37 -93 -143 2 c-79 0 -145 5 -149 10 -3 5 8 9 24 9 23 0 33 8 51 40 28
50 36 52 16 4 -19 -45 -19 -44 4 -44 12 0 29 17 46 46 31 53 42 53 20 1 -19
-46 -19 -46 6 -40 11 3 34 28 51 54 16 27 32 49 34 49 2 0 -5 -23 -16 -50 -11
-28 -20 -52 -20 -55 0 -2 12 1 28 7 18 7 42 35 71 84 25 41 46 72 48 71 1 -2
-14 -45 -34 -95z m668 81 c13 -16 12 -17 -3 -4 -17 13 -22 21 -14 21 2 0 10
-8 17 -17z m-3041 4 c0 -2 -17 -19 -37 -38 l-38 -34 34 38 c33 34 41 42 41 34z
m2590 0 c0 -2 -17 -19 -37 -38 l-38 -34 34 38 c33 34 41 42 41 34z m-1863
-396 c2 -2 12 4 23 14 19 17 31 17 308 2 475 -28 944 -56 987 -60 22 -2 -267
-4 -641 -5 -535 -2 -684 1 -691 11 -9 11 -43 135 -43 154 0 4 12 -19 27 -52
15 -33 28 -62 30 -64z m-1122 60 l80 -19 -66 -1 c-36 -1 -88 -4 -115 -7 l-49
-7 24 27 c29 31 24 30 126 7z m3975 -41 l25 -20 -122 0 c-72 0 -123 4 -123 10
0 8 13 12 90 23 64 10 106 6 130 -13z m-3927 -49 c61 -5 93 -13 105 -24 15
-16 7 -17 -114 -17 -72 0 -152 3 -178 6 l-47 7 28 18 c31 19 73 22 206 10z
m3967 -41 c22 -11 40 -23 40 -25 0 -3 -78 -5 -172 -5 l-173 1 30 24 c28 23 38
25 133 25 83 0 110 -4 142 -20z"/>
<path d="M3140 2306 c0 -2 16 -13 36 -25 19 -12 32 -16 29 -11 -7 11 -65 43
-65 36z"/>
<path d="M1715 1911 c-83 -21 -136 -72 -160 -154 -63 -212 203 -370 359 -214
70 70 85 165 40 254 -42 86 -150 137 -239 114z"/>
<path d="M4300 1911 c-121 -37 -185 -142 -159 -263 20 -93 113 -167 209 -168
49 0 134 35 162 66 29 33 58 107 58 152 0 136 -145 251 -270 213z"/>
</g>
</svg>
